HIERARCHY
ROOT Hips
{
  OFFSET 0.213343 82.8843 0.148548
  CHANNELS 6 Xposition Yposition Zposition Zrotation Xrotation Yrotation
  JOINT Spine
  {
    OFFSET -0.000355721 21.3001 -0.016921
    CHANNELS 3 Zrotation Xrotation Yrotation
    JOINT LeftArm
    {
      OFFSET 13.5181 21.3012 0
      CHANNELS 3 Zrotation Xrotation Yrotation
      JOINT LeftForeArm
      {
        OFFSET 24.5783 0 0
        CHANNELS 3 Zrotation Xrotation Yrotation
        JOINT LeftHand
        {
          OFFSET 24.5783 0 0
          CHANNELS 3 Zrotation Xrotation Yrotation
          End Site
          {
            OFFSET 7.32568 1.52588e-05 0.0169305
          }
        }
      }
    }
    JOINT Head
    {
      OFFSET 0 27.4458 -0.00489235
      CHANNELS 3 Zrotation Xrotation Yrotation
      End Site
      {
        OFFSET 0 0 0
      }
    }
    JOINT RightArm
    {
      OFFSET -13.5174 21.3012 0
      CHANNELS 3 Zrotation Xrotation Yrotation
      JOINT RightForeArm
      {
        OFFSET -24.5783 0 0
        CHANNELS 3 Zrotation Xrotation Yrotation
        JOINT RightHand
        {
          OFFSET -24.5783 0 0
          CHANNELS 3 Zrotation Xrotation Yrotation
          End Site
          {
            OFFSET -7.32568 1.52588e-05 0.0169305
          }
        }
      }
    }
  }
  JOINT RightUpLeg
  {
    OFFSET -8.44614 -9.41038 0.835684
    CHANNELS 3 Zrotation Xrotation Yrotation
    JOINT RightLeg
    {
      OFFSET 0 -40.9639 0
      CHANNELS 3 Zrotation Xrotation Yrotation
      JOINT RightFoot
      {
        OFFSET 0 -40.9639 0
        CHANNELS 3 Zrotation Xrotation Yrotation
        End Site
        {
          OFFSET 0.50614 -9.67405 14.6709
        }
      }
    }
  }
  JOINT LeftUpLeg
  {
    OFFSET 8.44614 -9.41038 0.835684
    CHANNELS 3 Zrotation Xrotation Yrotation
    JOINT LeftLeg
    {
      OFFSET 0 -40.9639 0
      CHANNELS 3 Zrotation Xrotation Yrotation
      JOINT LeftFoot
      {
        OFFSET 0 -40.9639 0
        CHANNELS 3 Zrotation Xrotation Yrotation
        End Site
        {
          OFFSET -0.50614 -9.67405 14.6709
        }
      }
    }
  }
}
MOTION
Frames:	11
Frame Time:	0.0333333
0.213343 82.8843 0.148548 1.83354 12.4431 -21.602 -1.593 10.2435 1.0312 -64.8645 5.84627 -9.48225 -0.00112428 2.35438e-05 -90.9823 13.1299 36.8501 11.3204 -3.08439 -11.9871 16.6516 47.5577 25.167 31.7934 -7.49344e-05 -6.61555e-07 92.725 -24.6601 34.5433 -4.89273 -20.4628 -33.7105 -19.0074 -8.58112 46.7182 10.1824 17.9115 -49.0449 3.15394 29.6385 -43.3208 23.966 5.24661 46.0484 -10.9812 -16.443 -38.778 -0.891764 
0.171442 82.9902 0.0509362 1.43606 12.0443 -21.6577 -1.59866 10.2989 0.998862 -65.7894 6.5817 -8.20347 -0.00112366 4.7499e-05 -91.9821 12.0757 37.2079 12.5614 -3.35488 -11.6974 16.6085 48.4201 26.3076 29.564 -7.49139e-05 -1.00251e-06 94.1315 -22.6776 35.5324 -4.96343 -19.9198 -33.1043 -18.7051 -8.45768 46.3601 10.0428 17.7561 -48.9585 3.10681 29.8166 -42.5548 24.1094 5.29367 45.6481 -11.3121 -16.3892 -38.7288 -0.859841 
0.165838 83.0851 -0.0156057 1.05574 11.6438 -21.7546 -1.53304 10.278 0.918992 -66.6449 7.81371 -7.04933 -0.00112282 6.76914e-05 -92.8253 10.8098 37.7081 14.2928 -3.51907 -10.8997 16.5763 49.3226 27.479 27.0411 -7.48845e-05 -1.34988e-06 95.567 -20.8339 36.2987 -4.73757 -19.4377 -32.497 -18.446 -8.35797 45.995 9.9838 17.6363 -48.8488 3.05974 29.9836 -41.8185 24.2477 5.32671 45.3549 -11.5964 -16.3289 -38.7202 -0.841327 
0.227607 83.1592 -0.0250646 0.709664 11.2453 -21.927 -1.39627 10.2189 0.769862 -67.3771 9.38418 -6.06748 -0.00112164 8.82942e-05 -93.6863 9.41705 38.2758 16.4178 -3.43036 -10.4166 16.6397 50.3549 28.5633 24.2485 -7.48467e-05 -1.69329e-06 96.9896 -19.1677 36.8458 -4.43519 -19.0602 -31.9033 -18.2492 -8.30291 45.6272 10.0719 17.5796 -48.6946 3.01154 30.1349 -41.147 24.3859 5.33684 45.2705 -11.7947 -16.2554 -38.7923 -0.846967 
0.395981 83.2145 0.0151408 0.435256 10.882 -22.1001 -1.22335 10.1836 0.535934 -67.9124 10.9662 -5.32265 -0.00111975 0.000113916 -94.7582 8.08818 38.791 18.6429 -3.04205 -11.0978 16.825 51.5421 29.3913 21.353 -7.48034e-05 -2.0151e-06 98.3266 -17.5934 37.214 -4.43278 -18.9029 -31.3539 -18.2074 -8.26725 45.2658 10.2941 17.5485 -48.4192 2.93954 30.1746 -40.715 24.4031 5.35617 45.4981 -11.871 -16.1107 -38.775 -0.842811 
0.620617 83.2837 0.0090822 0.260386 10.6758 -22.2478 -1.11242 10.2451 0.230271 -68.1778 12.0474 -4.88742 -0.00111671 0.000145931 -96.1 7.16618 39.1121 20.3229 -2.60565 -13.0937 17.0355 52.6903 29.7947 18.7939 -7.476e-05 -2.29221e-06 99.4816 -15.7543 37.5134 -5.23645 -18.824 -31.0041 -18.1868 -8.24088 44.8407 10.4454 17.4985 -48.0077 2.83437 30.1614 -40.6056 24.3247 5.39007 45.813 -11.8131 -15.9037 -38.4181 -0.781151 
0.700095 83.2931 -0.0916299 0.501026 10.9548 -22.3716 -1.1615 10.3965 -0.112574 -68.064 12.387 -4.92013 -0.00111338 0.000174277 -97.2907 6.28687 38.9971 21.7703 -2.68147 -14.6568 17.0149 53.3994 29.7535 17.0611 -7.47219e-05 -2.50971e-06 100.391 -12.9971 37.8061 -7.19816 -18.8656 -31.5122 -18.0664 -8.4391 44.7851 10.437 17.6513 -47.8073 2.80664 30.1122 -41.1866 24.2244 5.45966 46.0736 -11.4782 -15.9832 -37.7402 -0.672613 
0.569911 83.3403 -0.224991 0.769643 10.991 -22.2966 -1.34245 10.4703 -0.448728 -67.3545 12.4394 -5.79337 -0.00111335 0.000174503 -97.3003 5.08389 38.4442 23.1262 -3.82045 -12.072 16.4746 53.3891 29.4892 16.2796 -7.46908e-05 -2.67389e-06 101.079 -8.57042 37.9665 -10.2373 -18.9419 -31.7345 -18.0402 -8.63787 44.8434 10.3267 18.0472 -47.8665 2.87323 29.846 -41.3161 24.1209 5.46426 45.7943 -11.4146 -16.5342 -37.1616 -0.579471 
0.168844 83.517 -0.230132 0.935035 9.80643 -21.6189 -1.48044 10.189 -0.732977 -65.643 13.293 -8.09193 -0.00111936 0.000118572 -94.9532 3.04692 37.7177 24.6967 -6.04981 -1.70076 15.5624 52.8979 29.4101 15.9665 -7.46626e-05 -2.81408e-06 101.668 -2.07608 37.6643 -13.7178 -19.4964 -30.2441 -18.6136 -8.78236 44.8481 10.5442 18.625 -48.3641 3.069 28.3412 -39.7371 23.3413 5.34021 44.3 -11.9074 -16.8906 -37.3873 -0.577254 
-0.414272 83.9573 0.0723398 0.789753 6.58659 -20.1911 -1.29203 9.33114 -0.876474 -62.325 15.9896 -12.3533 -0.00112448 -3.21439e-06 -89.8659 -0.227157 37.3265 26.7142 -9.06013 16.6594 15.1968 52.3204 30.1083 15.495 -7.46319e-05 -2.95885e-06 102.277 6.17099 36.5561 -16.6209 -20.267 -25.7548 -19.4707 -9.26893 44.2126 11.354 19.0601 -48.839 3.22888 25.1168 -35.6331 21.5023 5.61871 41.7052 -12.2849 -18.1884 -37.5347 -1.96585 
-1.09826 84.6955 0.736404 0.341127 1.53227 -18.2286 -0.590713 7.8959 -0.764468 -56.8212 20.6228 -18.6721 -0.00111425 -0.000167352 -83.0004 -6.80752 37.8665 29.2096 -13.3434 37.891 16.9284 50.8795 32.3501 15.3081 -7.46115e-05 -3.05092e-06 102.665 15.2915 34.5472 -18.0503 -20.4743 -18.2499 -19.729 -10.477 42.1456 12.2433 19.0183 -48.7338 3.14712 20.9059 -29.1726 19.1088 6.89859 38.3074 -13.1308 -20.8122 -36.6946 -4.05172 
